<svg xmlns="http://www.w3.org/2000/svg" viewBox="0 0 900 620" role="img" aria-labelledby="title desc">
  <title id="title">Spotlight cafe placeholder</title>
  <desc id="desc">Soft city square with a coffee cup foreground.</desc>
  <rect width="900" height="620" fill="#e8d3bd"/>
  <rect y="310" width="900" height="310" fill="#c8a98d"/>
  <g opacity=".55">
    <rect x="35" y="90" width="135" height="270" fill="#d7b99f"/>
    <rect x="195" y="70" width="160" height="290" fill="#b99577"/>
    <rect x="390" y="105" width="125" height="255" fill="#dfc2a8"/>
    <rect x="550" y="75" width="170" height="285" fill="#bd9678"/>
    <rect x="755" y="125" width="105" height="235" fill="#d9bca0"/>
  </g>
  <ellipse cx="465" cy="450" rx="145" ry="52" fill="#7a4236" opacity=".3"/>
  <path d="M350 360h190l-18 125c-10 45-145 45-154 0z" fill="#f4efe8"/>
  <ellipse cx="445" cy="360" rx="97" ry="34" fill="#ffffff"/>
  <ellipse cx="445" cy="360" rx="70" ry="21" fill="#c88754"/>
  <path d="M530 385c70-20 95 75 15 82" fill="none" stroke="#f4efe8" stroke-width="24" stroke-linecap="round"/>
  <path d="M370 360c35 25 95 25 145 0" fill="none" stroke="#ffffff" stroke-width="8" opacity=".75"/>
</svg>
